# xmcd
#
# Track frame offsets: 
#        150
#        17341
#        30134
#        46852
#        64058
#        82873
#        101435
#        119100
#        142118
#        159145
#        174029
#        191832
#        202875
#        227625
#
# Disc length: 3322 seconds
#
# Revision: 2
# Processed by: cddbd v1.5.2PL0 Copyright (c) Steve Scherf et al.
# Submitted via: ExactAudioCopy v0.99pb4
#
DISCID=a00cf80e
DTITLE=Malzenstwo z Rozsadku - Hotelik Spoznionych Milosci
DYEAR=2005
DGENRE=Poezja Spiewana
TTITLE0=Bosonogie Anioly
TTITLE1=Zar Pod Popiolem
TTITLE2=Staruszek Zegar
TTITLE3=Jaka Jestes Po Latach
TTITLE4=Taniec
TTITLE5=Hotelik Spoznionych Milosci
TTITLE6=Plac Pigal
TTITLE7=List Z Szuflady
TTITLE8=Powiedz Nas Panie Na Pokuszenie
TTITLE9=Po Tylu Latach
TTITLE10=Idzie Milosc
TTITLE11=Ubostwo Milosci
TTITLE12=Nic Sie Przeciez Nie Konczy
TTITLE13=Zachod Slonca
EXTD=Wrzucil Bartymeusz
EXTT0=
EXTT1=
EXTT2=
EXTT3=
EXTT4=
EXTT5=
EXTT6=
EXTT7=
EXTT8=
EXTT9=
EXTT10=
EXTT11=
EXTT12=
EXTT13=
PLAYORDER=
